# xmcd
#
# Track frame offsets:
#	150
#	23142
#	45950
#	61000
#	75321
#	108017
#	136451
#
# Disc length: 2073 seconds
#
# Revision: 6
# Processed by: cddbd v1.5.2PL0 Copyright (c) Steve Scherf et al.
# Submitted via: audiograbber 1.83.01
#
DISCID=43081707
DTITLE=Kraftwerk - Der Katalog [CD 5) - Computerwelt [remastered 2009]
DYEAR=1981
DGENRE=Electronic
TTITLE0=Computerwelt
TTITLE1=Taschenrechner
TTITLE2=Nummern
TTITLE3=Computerwelt 2
TTITLE4=Computer Liebe
TTITLE5=Heimcomputer
TTITLE6=It's More Fun To Compute
EXTD=
EXTT0=
EXTT1=
EXTT2=
EXTT3=
EXTT4=
EXTT5=
EXTT6=
PLAYORDER=
